<svg width="127" height="160" viewBox="0 0 127 160" fill="none" xmlns="http://www.w3.org/2000/svg">
<path fill-rule="evenodd" clip-rule="evenodd" d="M34.0322 97.7135H65.6075V104.374H34.0322V97.7135ZM94.7002 83.2386H34.0322V76.5785H94.7002V83.2386ZM94.7002 62.1037H34.0322V55.4401H94.7002V62.1001V62.1037ZM94.7002 40.9688H34.0322V34.3052H94.7002V40.9652V40.9688ZM99.4675 138.867L86.5482 147.36V104.522H112.457L112.387 147.36L99.4675 138.867ZM79.8864 120.388H16.7058C15.4099 120.388 14.3575 119.334 14.3575 118.04V17.2666C14.3575 15.9706 15.4099 14.9183 16.7058 14.9183H110.264C111.559 14.9183 112.613 15.9706 112.613 17.2666L112.472 97.5687H79.8881V120.388H79.8864ZM64.3362 145.374C62.856 145.374 61.4364 144.786 60.3897 143.739C59.343 142.692 58.755 141.273 58.755 139.793C58.755 138.312 59.343 136.893 60.3897 135.846C61.4364 134.799 62.856 134.211 64.3362 134.211C65.8165 134.211 67.2361 134.799 68.2828 135.846C69.3294 136.893 69.9175 138.312 69.9175 139.793C69.9175 141.273 69.3294 142.692 68.2828 143.739C67.2361 144.786 65.8165 145.374 64.3362 145.374ZM110.264 0.828308H16.7058C7.64096 0.828308 0.267578 8.20169 0.267578 17.2666V143.299C0.267578 152.361 7.64096 159.737 16.7058 159.737H110.264C119.328 159.737 126.703 152.361 126.703 143.299V17.2666C126.703 8.20169 119.328 0.828308 110.264 0.828308Z" fill="#FCC918"/>
</svg>
