<svg width="866" height="279" viewBox="0 0 866 279" fill="none" xmlns="http://www.w3.org/2000/svg">
<g clip-path="url(#clip0_11_2)">
<path d="M2.43216 268.193L3.27407 269.222C4.58369 271.093 6.89113 273.026 10.1964 275.022C11.8178 276.082 13.9382 276.97 16.5574 277.688C19.1767 278.405 21.9518 278.763 24.8829 278.763C30.6203 278.763 36.0147 277.111 41.0661 273.805C43.6854 272.122 45.8057 269.736 47.4272 266.649C49.0486 263.562 49.8593 259.992 49.8593 255.938C49.8593 251.885 49.0642 248.47 47.474 245.695C45.8837 242.92 43.9037 240.971 41.5339 239.849C39.1641 238.726 36.576 237.775 33.7697 236.996C30.9633 236.216 28.3752 235.639 26.0054 235.265C23.6356 234.891 21.6556 234.174 20.0653 233.114C18.4751 232.053 17.68 230.666 17.68 228.951C17.68 227.236 18.3504 225.895 19.6912 224.928C21.032 223.962 22.7158 223.478 24.7426 223.478C26.7694 223.478 28.4376 223.884 29.7472 224.694C30.1838 225.006 30.6671 225.412 31.1972 225.911C31.7273 226.409 32.0858 226.721 32.2729 226.846C34.2062 228.093 35.8276 228.717 37.1373 228.717C39.3823 228.717 41.5651 227.158 43.6854 224.04C45.1821 221.857 45.9305 220.142 45.9305 218.895C45.9305 217.647 44.9638 216.12 43.0306 214.311L40.692 212.534C39.5071 211.536 37.3711 210.554 34.2841 209.587C31.1972 208.62 27.7828 208.137 24.041 208.137C16.994 208.137 11.4281 210.179 7.34326 214.264C3.25848 218.349 1.21608 223.135 1.21608 228.623C1.21608 232.615 2.01121 236.029 3.60147 238.867C5.19173 241.704 7.17176 243.778 9.54156 245.087C11.9114 246.397 14.4683 247.535 17.2122 248.502C19.9562 249.468 22.5131 250.17 24.8829 250.606C27.2527 251.043 29.2327 251.744 30.823 252.711C32.4133 253.678 33.2084 254.878 33.2084 256.313C33.2084 261.052 30.3085 263.422 24.5087 263.422C23.1367 263.422 21.64 262.939 20.0186 261.972C18.3971 261.005 17.1499 259.992 16.2768 258.932C13.1586 255.814 10.7265 254.255 8.9803 254.255C7.23413 254.255 5.5815 255.003 4.02242 256.5C1.34081 259.119 0 261.224 0 262.814C0 264.404 0.810721 266.197 2.43216 268.193Z" fill="#FCC918"/>
<path d="M129.185 214.124C127.564 210.881 125.069 209.26 121.702 209.26C120.143 209.26 118.662 209.696 117.258 210.569C115.855 211.442 114.811 212.596 114.125 214.03L88.8676 266.322C87.8074 268.442 87.2773 270.032 87.2773 271.093C87.2773 273.338 89.0859 275.333 92.7029 277.08C94.8233 278.14 96.4915 278.67 97.7076 278.67C98.9237 278.67 99.9215 278.374 100.701 277.781C101.481 277.189 102.042 276.612 102.385 276.051C102.728 275.489 103.211 274.585 103.835 273.338L108.699 263.235H134.611L139.475 273.338C140.099 274.585 140.582 275.52 140.925 276.144C141.268 276.768 141.83 277.36 142.609 277.921C143.389 278.483 144.386 278.763 145.602 278.763C146.819 278.763 148.487 278.233 150.607 277.173C154.224 275.365 156.033 273.338 156.033 271.093C156.033 270.032 155.503 268.442 154.442 266.322L129.185 214.124ZM121.608 236.575L127.876 249.39H115.434L121.608 236.575Z" fill="#FCC918"/>
<path d="M198.596 217.492V269.502C198.596 271.685 198.783 273.275 199.157 274.273C199.905 276.643 202.462 277.828 206.828 277.828C210.819 277.828 213.251 276.986 214.124 275.302C214.623 274.367 214.919 273.556 215.013 272.87C215.106 272.184 215.153 271.093 215.153 269.596V217.585C215.153 215.402 214.997 213.781 214.685 212.721C213.875 210.413 211.287 209.26 206.921 209.26C202.93 209.26 200.498 210.101 199.625 211.785C199.126 212.721 198.83 213.547 198.736 214.264C198.642 214.981 198.596 216.057 198.596 217.492Z" fill="#FCC918"/>
<path d="M308.885 241.065C311.255 237.635 312.44 233.862 312.44 229.746C312.44 224.071 310.413 219.207 306.359 215.153C302.493 211.162 297.691 209.166 291.953 209.166H268.38C264.389 209.166 261.957 210.008 261.084 211.692C260.585 212.627 260.289 213.438 260.195 214.124C260.101 214.81 260.055 215.901 260.055 217.398V269.315C260.055 271.498 260.242 273.119 260.616 274.18C261.364 276.549 263.921 277.734 268.287 277.734H292.889C298.813 277.734 303.849 275.63 307.996 271.42C312.144 267.211 314.279 261.988 314.404 255.751C314.404 250.326 312.564 245.43 308.885 241.065ZM297.847 254.816C297.847 259.057 295.882 261.177 291.953 261.177H276.612V225.723H289.708C291.766 225.723 293.31 226.035 294.339 226.659C295.368 227.283 295.882 228.374 295.882 229.933C295.882 231.492 295.789 232.615 295.602 233.301C295.103 234.61 293.606 235.265 291.112 235.265C288.43 235.265 286.512 235.702 285.359 236.575C284.205 237.448 283.628 239.241 283.628 241.953C283.628 244.666 284.189 246.459 285.312 247.332C286.434 248.205 288.118 248.642 290.363 248.642C292.608 248.642 294.354 248.891 295.602 249.39C296.412 249.764 296.989 250.388 297.332 251.261C297.675 252.134 297.847 253.319 297.847 254.816Z" fill="#FCC918"/>
<path d="M397.472 214.124C395.85 210.881 393.356 209.26 389.988 209.26C388.429 209.26 386.948 209.696 385.545 210.569C384.141 211.442 383.097 212.596 382.411 214.03L357.154 266.322C356.094 268.442 355.563 270.032 355.563 271.093C355.563 273.338 357.372 275.333 360.989 277.08C363.109 278.14 364.778 278.67 365.994 278.67C367.21 278.67 368.208 278.374 368.987 277.781C369.767 277.189 370.328 276.612 370.671 276.051C371.014 275.489 371.497 274.585 372.121 273.338L376.985 263.235H402.897L407.761 273.338C408.385 274.585 408.868 275.52 409.211 276.144C409.554 276.768 410.116 277.36 410.895 277.921C411.675 278.483 412.673 278.763 413.889 278.763C415.105 278.763 416.773 278.233 418.893 277.173C422.51 275.365 424.319 273.338 424.319 271.093C424.319 270.032 423.789 268.442 422.729 266.322L397.472 214.124ZM389.894 236.575L396.162 249.39H383.72L389.894 236.575Z" fill="#FCC918"/>
<path d="M600.838 211.879C599.965 210.195 597.548 209.353 593.588 209.353C589.628 209.353 587.118 210.195 586.058 211.879C582.503 216.369 575.425 225.63 564.823 239.662L543.589 211.785L543.028 211.224C542.653 210.788 541.858 210.367 540.642 209.961C539.426 209.556 537.976 209.353 536.292 209.353C532.363 209.353 529.931 210.164 528.996 211.785C528.497 212.721 528.201 213.547 528.107 214.264C528.014 214.981 527.967 216.057 527.967 217.492V269.409C527.967 270.906 528.014 272.028 528.107 272.776C528.201 273.525 528.497 274.336 528.996 275.209C529.931 276.892 532.301 277.734 536.105 277.734C540.034 277.734 542.466 276.892 543.402 275.209C543.901 274.336 544.197 273.54 544.29 272.823C544.384 272.106 544.431 271.03 544.431 269.596V238.071C544.742 238.446 546.738 241.174 550.418 246.257C554.097 251.339 556.56 254.66 557.808 256.219L558.556 257.248C559.055 257.872 559.881 258.511 561.035 259.166C562.189 259.821 563.467 260.148 564.87 260.148C566.273 260.148 567.583 259.789 568.799 259.072C570.015 258.355 570.779 257.794 571.091 257.388C571.403 256.983 571.964 256.25 572.775 255.19C573.585 254.13 575.488 251.495 578.481 247.286C581.474 243.076 583.751 240.005 585.31 238.071V269.409C585.31 271.592 585.466 273.213 585.777 274.273C586.089 275.084 586.526 275.708 587.087 276.144C587.648 276.581 588.459 276.955 589.519 277.267C590.579 277.578 592.014 277.734 593.822 277.734C595.631 277.734 597.128 277.547 598.312 277.173C600.682 276.425 601.867 273.899 601.867 269.596V217.679C601.867 216.244 601.82 215.153 601.727 214.405C601.633 213.656 601.337 212.814 600.838 211.879Z" fill="#FCC918"/>
<path d="M686.338 214.124C684.716 210.881 682.222 209.26 678.854 209.26C677.295 209.26 675.814 209.696 674.411 210.569C673.008 211.442 671.963 212.596 671.277 214.03L646.02 266.322C644.96 268.442 644.43 270.032 644.43 271.093C644.43 273.338 646.238 275.333 649.855 277.08C651.976 278.14 653.644 278.67 654.86 278.67C656.076 278.67 657.074 278.374 657.853 277.781C658.633 277.189 659.194 276.612 659.537 276.051C659.88 275.489 660.363 274.585 660.987 273.338L665.851 263.235H691.763L696.628 273.338C697.251 274.585 697.735 275.52 698.078 276.144C698.421 276.768 698.982 277.36 699.761 277.921C700.541 278.483 701.539 278.763 702.755 278.763C703.971 278.763 705.639 278.233 707.759 277.173C711.377 275.365 713.185 273.338 713.185 271.093C713.185 270.032 712.655 268.442 711.595 266.322L686.338 214.124ZM678.761 236.575L685.028 249.39H672.587L678.761 236.575Z" fill="#FCC918"/>
<path d="M755.748 217.492V269.502C755.748 271.685 755.935 273.275 756.309 274.273C757.058 276.643 759.615 277.828 763.98 277.828C767.971 277.828 770.403 276.986 771.277 275.302C771.775 274.367 772.072 273.556 772.165 272.87C772.259 272.184 772.305 271.093 772.305 269.596V217.585C772.305 215.402 772.15 213.781 771.838 212.721C771.027 210.413 768.439 209.26 764.074 209.26C760.082 209.26 757.65 210.101 756.777 211.785C756.278 212.721 755.982 213.547 755.888 214.264C755.795 214.981 755.748 216.057 755.748 217.492Z" fill="#FCC918"/>
<path d="M818.236 268.193L819.078 269.222C820.387 271.093 822.695 273.026 826 275.022C827.622 276.082 829.742 276.97 832.361 277.688C834.98 278.405 837.756 278.763 840.687 278.763C846.424 278.763 851.818 277.111 856.87 273.805C859.489 272.122 861.609 269.736 863.231 266.649C864.852 263.562 865.663 259.992 865.663 255.938C865.663 251.885 864.868 248.47 863.278 245.695C861.687 242.92 859.707 240.971 857.338 239.849C854.968 238.726 852.38 237.775 849.573 236.996C846.767 236.216 844.179 235.639 841.809 235.265C839.439 234.891 837.459 234.174 835.869 233.114C834.279 232.053 833.484 230.666 833.484 228.951C833.484 227.236 834.154 225.895 835.495 224.928C836.836 223.962 838.52 223.478 840.546 223.478C842.573 223.478 844.241 223.884 845.551 224.694C845.987 225.006 846.471 225.412 847.001 225.911C847.531 226.409 847.89 226.721 848.077 226.846C850.01 228.093 851.631 228.717 852.941 228.717C855.186 228.717 857.369 227.158 859.489 224.04C860.986 221.857 861.734 220.142 861.734 218.895C861.734 217.647 860.768 216.12 858.834 214.311L856.496 212.534C855.311 211.536 853.175 210.554 850.088 209.587C847.001 208.62 843.587 208.137 839.845 208.137C832.798 208.137 827.232 210.179 823.147 214.264C819.062 218.349 817.02 223.135 817.02 228.623C817.02 232.615 817.815 236.029 819.405 238.867C820.995 241.704 822.976 243.778 825.345 245.087C827.715 246.397 830.272 247.535 833.016 248.502C835.76 249.468 838.317 250.17 840.687 250.606C843.056 251.043 845.036 251.744 846.627 252.711C848.217 253.678 849.012 254.878 849.012 256.313C849.012 261.052 846.112 263.422 840.312 263.422C838.94 263.422 837.444 262.939 835.822 261.972C834.201 261.005 832.954 259.992 832.081 258.932C828.962 255.814 826.53 254.255 824.784 254.255C823.038 254.255 821.385 255.003 819.826 256.5C817.145 259.119 815.804 261.224 815.804 262.814C815.804 264.404 816.614 266.197 818.236 268.193Z" fill="#FCC918"/>
<path fill-rule="evenodd" clip-rule="evenodd" d="M403.032 105.713H434.607V112.374H403.032V105.713ZM463.7 91.2386H403.032V84.5785H463.7V91.2386ZM463.7 70.1037H403.032V63.4401H463.7V70.1001V70.1037ZM463.7 48.9688H403.032V42.3052H463.7V48.9652V48.9688ZM468.467 146.867L455.548 155.36V112.522H481.457L481.387 155.36L468.467 146.867ZM448.886 128.388H385.706C384.41 128.388 383.358 127.334 383.358 126.04V25.2666C383.358 23.9706 384.41 22.9183 385.706 22.9183H479.264C480.559 22.9183 481.613 23.9706 481.613 25.2666L481.472 105.569H448.888V128.388H448.886ZM433.336 153.374C431.856 153.374 430.436 152.786 429.39 151.739C428.343 150.692 427.755 149.273 427.755 147.793C427.755 146.312 428.343 144.893 429.39 143.846C430.436 142.799 431.856 142.211 433.336 142.211C434.816 142.211 436.236 142.799 437.283 143.846C438.329 144.893 438.917 146.312 438.917 147.793C438.917 149.273 438.329 150.692 437.283 151.739C436.236 152.786 434.816 153.374 433.336 153.374ZM479.264 8.82831H385.706C376.641 8.82831 369.268 16.2017 369.268 25.2666V151.299C369.268 160.361 376.641 167.737 385.706 167.737H479.264C488.328 167.737 495.703 160.361 495.703 151.299V25.2666C495.703 16.2017 488.328 8.82831 479.264 8.82831Z" fill="#FCC918"/>
</g>
<defs>
<clipPath id="clip0_11_2">
<rect width="865.663" height="278.763" fill="white"/>
</clipPath>
</defs>
</svg>
